PathFileType	4	(X/Y/Z)	C:/Users/opensim2020/Desktop/walking_exp_matlab/subject03/subject03_trc/subject03_walking16_run_cyclic.trc																																																																																																																																																	
DataRate	CameraRate	NumFrames	NumMarkers	Units	OrigDataRate	OrigDataStartFrame	OrigNumFrames																																																																																																																																													
100	100	5	49	mm	100	232	67																																																																																																																																													
Frame#	Time	RKNE			RTOE			RWRB			LTHI			RELB			RFRM			RUPA			RASI			LTIB			RWRA			RTHI			LSHO			LTOE			RTIB			LWRA			CLAV			LASI			RSHO			RFHD			STRN			LHEE			RFIN			RBHD			LFRM			C7			LWRB			LFIN			LUPA			LBHD			LELB			RANK			RHEE			RBAK			LPSI			T10			LFHD			RPSI			LKNE			LANK			*39			*40			*41			*42			*43			*44			*45			*46			*47			*48		
		X1	Y1	Z1	X2	Y2	Z2	X3	Y3	Z3	X4	Y4	Z4	X5	Y5	Z5	X6	Y6	Z6	X7	Y7	Z7	X8	Y8	Z8	X9	Y9	Z9	X10	Y10	Z10	X11	Y11	Z11	X12	Y12	Z12	X13	Y13	Z13	X14	Y14	Z14	X15	Y15	Z15	X16	Y16	Z16	X17	Y17	Z17	X18	Y18	Z18	X19	Y19	Z19	X20	Y20	Z20	X21	Y21	Z21	X22	Y22	Z22	X23	Y23	Z23	X24	Y24	Z24	X25	Y25	Z25	X26	Y26	Z26	X27	Y27	Z27	X28	Y28	Z28	X29	Y29	Z29	X30	Y30	Z30	X31	Y31	Z31	X32	Y32	Z32	X33	Y33	Z33	X34	Y34	Z34	X35	Y35	Z35	X36	Y36	Z36	X37	Y37	Z37	X38	Y38	Z38	X39	Y39	Z39	X40	Y40	Z40	X41	Y41	Z41	X42	Y42	Z42	X43	Y43	Z43	X44	Y44	Z44	X45	Y45	Z45	X46	Y46	Z46	X47	Y47	Z47	X48	Y48	Z48	X49	Y49	Z49
																																																																																																																																																				
39	0.38	-152.68254	548.87866	356.47223	-96.46555	60.70892	307.58618	-460.56097	947.46759	481.92862	-489.3342	622.677	84.91607	-567.09985	1145.15527	479.37817	-506.57187	1034.85999	482.37222	-519.40887	1227.27917	455.953	-336.18231	924.30609	348.41812	-694.05298	314.76102	132.97079	-429.30945	977.24402	450.48325	-273.12259	680.4726	395.90195	-325.69904	1364.87256	78.0521	-751.93707	30.43958	223.58556	-181.09116	354.55582	369.35867	-157.23544	1136.64294	183.31212	-295.46371	1318.16235	233.64764	-349.10599	901.72498	118.13721	-372.99554	1365.20166	373.6835	-339.86844	1615.20349	292.29141	-265.94046	1146.65283	238.16873	-873.71863	165.06627	220.83582	-396.65451	921.70172	493.87479	-438.97308	1531.13464	277.78888	-198.04703	1103.98022	74.16101	-419.39175	1394.54602	204.11867	-120.12112	1108.39014	152.8407	-79.24403	1119.31055	233.85657	-300.00266	1184.90747	-5.09038	-419.03317	1525.47046	148.92755	-271.01923	1084.8186	-7.69042	-219.39883	137.94081	336.13712	-272.09048	118.91475	287.28717	-495.67844	1246.01941	285.17484	-501.65488	956.09259	176.79901	-481.2457	1095.69092	220.4948	-315.34625	1610.06482	161.22299	-494.54779	966.50903	321.11194	-542.75549	451.58328	121.9678	-828.78687	159.71809	183.19283	NaN	NaN	NaN	NaN	NaN	NaN	NaN	NaN	NaN	NaN	NaN	NaN	NaN	NaN	NaN	NaN	NaN	NaN	NaN	NaN	NaN	-421.58334	1638.05615	195.58301	NaN	NaN	NaN	NaN	NaN	NaN
40	0.39	-123.03493	548.19305	357.07736	-25.8465	59.92468	301.0434	-432.91351	954.79517	480.6528	-460.49088	630.11737	84.46633	-538.35638	1153.98071	477.517	-478.35324	1042.98169	480.88199	-489.28894	1236.39612	455.00122	-300.57016	930.87848	348.26407	-674.76093	327.60214	131.03328	-400.94446	984.62689	449.87512	-239.6272	685.00647	396.11987	-293.09396	1371.75562	81.18695	-749.62256	30.71315	222.06622	-135.69579	350.95609	369.66913	-131.62527	1157.40247	185.52913	-263.56598	1324.01514	235.56235	-310.94577	906.35193	118.76574	-340.18744	1371.07129	374.76266	-307.07144	1620.50269	293.50476	-232.40059	1152.99524	240.34428	-849.55573	180.80373	217.00279	-369.2485	927.74908	493.09344	-406.67636	1537.33801	279.14496	-166.65598	1118.19873	77.59392	-386.74005	1400.22156	205.40971	-92.72094	1127.80701	159.6461	-55.85631	1148.2572	240.0096	-263.79562	1193.099	-2.46648	-386.80435	1531.3761	150.31711	-235.16844	1094.09338	-6.31708	-152.13145	132.30553	333.63116	-203.46324	112.44906	284.85434	-462.57336	1252.63867	284.98849	-463.74057	961.54865	175.7766	-446.9762	1100.61682	219.09283	-282.64182	1615.03589	162.75435	-458.22681	972.29529	319.30777	-521.42834	461.62784	121.10728	-808.0625	169.41672	178.47528	NaN	NaN	NaN	NaN	NaN	NaN	NaN	NaN	NaN	NaN	NaN	NaN	NaN	NaN	NaN	NaN	NaN	NaN	NaN	NaN	NaN	-388.57791	1644.09802	196.99493	NaN	NaN	NaN	NaN	NaN	NaN
41	0.4	-94.51618	545.0976	357.93234	41.73713	63.32961	295.85294	-403.85461	960.93622	479.47415	-430.85663	636.6756	84.28193	-508.58386	1161.32886	476.04959	-448.9711	1049.81494	479.71164	-458.32706	1244.23755	454.8248	-265.02219	936.2063	348.23975	-653.26538	339.5788	129.43394	-371.43402	990.94867	449.39655	-206.87192	687.03455	396.51114	-260.94345	1377.61963	84.49354	-741.45313	35.87913	219.68245	-91.97948	347.24625	369.61292	-107.35365	1175.4115	187.48218	-232.05873	1328.89429	237.38588	-273.07379	910.659	119.42065	-307.05609	1375.84106	375.97977	-274.03287	1624.5835	294.80829	-198.80153	1158.60376	242.39673	-825.9856	195.80458	209.57881	-340.29849	932.77014	491.97214	-374.4375	1542.62231	280.49219	-136.34863	1130.92749	80.83801	-354.54663	1405.3186	206.88982	-66.67707	1145.71411	165.63071	-33.64059	1174.48499	244.18451	-228.04836	1200.79602	-0.5448	-354.56061	1536.33521	151.73071	-199.79231	1102.52612	-5.38476	-88.58362	129.25615	330.99387	-137.69443	107.62228	282.10925	-429.18399	1258.71252	285.35251	-425.61761	966.47076	174.5652	-412.43454	1105.05847	217.94122	-249.64523	1618.72375	164.3885	-421.3345	977.34882	317.58011	-499.3515	471.34442	120.14477	-785.63501	179.4478	172.38603	NaN	NaN	NaN	NaN	NaN	NaN	NaN	NaN	NaN	NaN	NaN	NaN	NaN	NaN	NaN	NaN	NaN	NaN	NaN	NaN	NaN	-355.84412	1649.49902	198.37744	NaN	NaN	NaN	NaN	NaN	NaN
42	0.41	-66.8784	540.37909	358.85925	105.14272	70.40096	293.65085	-373.30194	965.74829	478.75067	-400.42776	642.46497	84.53611	-477.99774	1166.94763	475.27356	-418.57373	1055.20764	479.13193	-426.88089	1250.60986	454.97064	-229.57161	940.12396	348.20981	-629.02911	350.12906	128.11565	-340.51419	995.9447	449.04095	-175.03859	686.41309	396.92465	-229.29677	1382.21716	87.7599	-731.59717	43.04213	215.91776	-51.08474	343.91275	368.54736	-84.59509	1190.00073	189.56512	-200.56535	1332.76978	239.27472	-236.21999	913.87964	119.87492	-273.78836	1379.23047	377.40121	-240.9729	1627.47461	296.23804	-165.32521	1163.33337	244.21796	-801.66705	211.34865	201.4409	-309.75424	936.21362	490.95529	-342.11163	1546.68994	281.88379	-106.85055	1142.18469	83.48066	-322.47464	1409.10852	208.90413	-41.56298	1161.60327	170.35658	-12.14234	1196.35303	247.34186	-193.18449	1207.5929	1.39533	-322.22076	1540.04248	153.18193	-164.80534	1109.8075	-4.51135	-30.36966	128.06424	328.36365	-76.73908	104.42066	278.8544	-395.60651	1263.81458	286.28702	-387.5885	970.59119	172.91162	-377.9632	1108.70459	217.17731	-216.55638	1621.2478	165.8528	-385.13733	981.30884	315.94907	-474.59293	479.93048	120.09364	-762.2807	190.27002	166.29033	NaN	NaN	NaN	NaN	NaN	NaN	NaN	NaN	NaN	NaN	NaN	NaN	NaN	NaN	NaN	NaN	NaN	NaN	NaN	NaN	NaN	-321.81744	1653.42993	199.42111	NaN	NaN	NaN	NaN	NaN	NaN
43	0.42	-39.07236	534.93762	359.55347	162.09795	77.96169	294.52228	-341.1886	968.94507	478.57681	-368.42123	647.32532	85.16536	-446.57306	1170.59314	475.51758	-386.88034	1058.89771	479.23309	-394.82483	1254.87061	456.05396	-194.34135	942.25409	348.19788	-599.96741	358.15384	126.52108	-308.38712	999.51392	449.09521	-144.03288	683.24933	397.30417	-198.05133	1385.54126	90.83109	-720.3736	50.80621	211.03981	-12.75948	341.50217	368.03482	-61.43139	1201.29431	191.14812	-168.89743	1335.44434	241.12373	-199.71426	916.48871	119.8996	-240.74765	1381.16113	379.27298	-207.91154	1629.37378	297.71689	-131.60681	1166.34631	244.93411	-775.12085	227.11996	194.80492	-277.3613	938.27356	489.87183	-309.68832	1549.49573	283.42221	-78.08054	1151.39404	85.3471	-290.92581	1411.55359	211.14742	-16.52509	1174.59924	173.80292	9.34703	1213.10828	250.04123	-159.3633	1213.16345	2.93154	-289.8812	1542.4281	154.68271	-129.88315	1115.55688	-3.98876	22.28252	127.86169	326.08197	-20.7233	102.88789	275.10773	-362.02344	1267.547	287.88977	-350.17075	973.87512	171.21042	-343.57068	1111.29138	216.84373	-183.53799	1622.74915	167.25456	-349.57104	983.99719	314.70169	-444.04056	485.54733	120.62639	-737.58783	201.35956	161.07332	NaN	NaN	NaN	NaN	NaN	NaN	NaN	NaN	NaN	NaN	NaN	NaN	NaN	NaN	NaN	NaN	NaN	NaN	NaN	NaN	NaN	-288.00867	1656.19617	200.6306	NaN	NaN	NaN	NaN	NaN	NaN
